<svg width="30" height="30" viewBox="0 0 30 30" fill="none" xmlns="http://www.w3.org/2000/svg">
<path d="M27.9 1.5H2.1C1.77 1.5 1.5 1.77 1.5 2.1V27.9C1.5 28.23 1.77 28.5 2.1 28.5H27.9C28.23 28.5 28.5 28.23 28.5 27.9V2.1C28.5 1.77 28.23 1.5 27.9 1.5ZM27.3 27.3H2.7V2.7H27.3V27.3ZM8.577 20.577L14.151 15L8.577 9.423C8.343 9.189 8.343 8.808 8.577 8.574C8.811 8.34 9.192 8.34 9.426 8.574L15 14.151L20.577 8.574C20.811 8.34 21.192 8.34 21.426 8.574C21.66 8.808 21.66 9.189 21.426 9.423L15.849 15L21.426 20.577C21.66 20.811 21.66 21.192 21.426 21.426C21.306 21.54 21.153 21.6 21 21.6C20.847 21.6 20.694 21.54 20.577 21.423L15 15.849L9.423 21.423C9.306 21.54 9.153 21.6 9 21.6C8.847 21.6 8.694 21.54 8.577 21.423C8.34 21.189 8.34 20.811 8.577 20.577Z" fill="#EB5757"/>
</svg>
