<svg width="30" height="30" viewBox="0 0 30 30" fill="none" xmlns="http://www.w3.org/2000/svg">
<path d="M27.9 1.5H2.1C1.77 1.5 1.5 1.77 1.5 2.1V27.9C1.5 28.23 1.77 28.5 2.1 28.5H27.9C28.23 28.5 28.5 28.23 28.5 27.9V2.1C28.5 1.77 28.23 1.5 27.9 1.5ZM27.3 27.3H2.7V2.7H27.3V27.3ZM7.677 15.723C7.443 15.489 7.443 15.108 7.677 14.874C7.911 14.64 8.292 14.64 8.526 14.874L12.9 19.251L22.677 9.474C22.911 9.24 23.292 9.24 23.526 9.474C23.76 9.708 23.76 10.089 23.526 10.323L13.326 20.523C13.206 20.64 13.053 20.7 12.9 20.7C12.747 20.7 12.594 20.64 12.477 20.523L7.677 15.723Z" fill="#27AE60"/>
</svg>
