<svg width="30" height="30" viewBox="0 0 30 30" fill="none" xmlns="http://www.w3.org/2000/svg">
<path d="M15 1.5C7.557 1.5 1.5 7.557 1.5 15C1.5 22.443 7.557 28.5 15 28.5C22.443 28.5 28.5 22.443 28.5 15C28.5 7.557 22.443 1.5 15 1.5ZM15 27.3C8.217 27.3 2.7 21.783 2.7 15C2.7 8.217 8.217 2.7 15 2.7C21.783 2.7 27.3 8.217 27.3 15C27.3 21.783 21.783 27.3 15 27.3ZM15.6 6.9V18.9C15.6 19.23 15.33 19.5 15 19.5C14.67 19.5 14.4 19.23 14.4 18.9V6.9C14.4 6.57 14.67 6.3 15 6.3C15.33 6.3 15.6 6.57 15.6 6.9ZM15.6 21.9V23.1C15.6 23.43 15.33 23.7 15 23.7C14.67 23.7 14.4 23.43 14.4 23.1V21.9C14.4 21.57 14.67 21.3 15 21.3C15.33 21.3 15.6 21.57 15.6 21.9Z" fill="#EB5757"/>
</svg>
