<svg width="40" height="40" viewBox="0 0 40 40" fill="none" xmlns="http://www.w3.org/2000/svg">
<path d="M29.2 9.20001V3.60001H14.8C14.36 3.60001 14 3.96001 14 4.40001V8.72001C17.68 9.76001 20.4 13.16 20.4 17.2C20.4 20.16 18.92 22.8 16.64 24.4H18.8C19.68 24.4 20.4 25.12 20.4 26V28.4H21.2C22.08 28.4 22.8 29.12 22.8 30V32.4C22.8 33.28 22.08 34 21.2 34H20.4V36.4H36.4C36.84 36.4 37.2 36.04 37.2 35.6V11.6H31.6C30.28 11.6 29.2 10.52 29.2 9.20001ZM34 34H26C25.56 34 25.2 33.64 25.2 33.2C25.2 32.76 25.56 32.4 26 32.4H34C34.44 32.4 34.8 32.76 34.8 33.2C34.8 33.64 34.44 34 34 34ZM34 30H26C25.56 30 25.2 29.64 25.2 29.2C25.2 28.76 25.56 28.4 26 28.4H34C34.44 28.4 34.8 28.76 34.8 29.2C34.8 29.64 34.44 30 34 30ZM34 26H23.6C23.16 26 22.8 25.64 22.8 25.2C22.8 24.76 23.16 24.4 23.6 24.4H34C34.44 24.4 34.8 24.76 34.8 25.2C34.8 25.64 34.44 26 34 26ZM34.8 14.8V17.2C34.8 17.64 34.44 18 34 18C33.56 18 33.2 17.64 33.2 17.2V16.88L30.6 19.76C30.44 19.92 30.24 20 30 20C29.76 20 29.56 19.92 29.4 19.76L28.12 18.48L27.56 17.92L25.88 19.8L24.12 21.72C24.04 21.92 23.8 22 23.6 22C23.4 22 23.2 21.92 23.08 21.8C22.76 21.52 22.72 21 23.04 20.68L27.04 16.28C27.2 16.12 27.4 16.04 27.6 16C27.84 16 28.04 16.08 28.2 16.24L29.64 17.68L30.04 18.08L31.24 16.76L32.28 15.64H31.6C31.16 15.64 30.8 15.28 30.8 14.84C30.8 14.4 31.16 14.04 31.6 14.04H34C34.44 14 34.8 14.36 34.8 14.8Z" fill="white"/>
<path d="M31.5998 10H36.0798L30.7998 4.72V9.2C30.7998 9.64 31.1598 10 31.5998 10Z" fill="#1D76C5"/>
<path d="M38.5598 10.24L30.5598 2.24C30.3998 2.08 30.1998 2 29.9998 2H14.7998C13.4798 2 12.3998 3.08 12.3998 4.4V8.44C12.1198 8.4 11.8798 8.4 11.5998 8.4C6.7598 8.4 2.7998 12.36 2.7998 17.2C2.7998 20.16 4.2798 22.8 6.5598 24.4H4.3998C3.5198 24.4 2.7998 25.12 2.7998 26V28.4C2.7998 29.28 3.5198 30 4.3998 30H5.1998V32.4H4.3998C3.5198 32.4 2.7998 33.12 2.7998 34V36.4C2.7998 37.28 3.5198 38 4.3998 38H14.7998H18.7998H36.3998C37.7198 38 38.7998 36.92 38.7998 35.6V10.8C38.7998 10.6 38.7198 10.4 38.5598 10.24ZM36.0798 10H31.5998C31.1598 10 30.7998 9.64 30.7998 9.2V4.72L36.0798 10ZM4.3998 17.2C4.3998 13.24 7.63981 10 11.5998 10C15.5598 10 18.7998 13.24 18.7998 17.2C18.7998 21.16 15.5598 24.4 11.5998 24.4C7.63981 24.4 4.3998 21.16 4.3998 17.2ZM4.3998 28.4V26H11.5998H18.7998V28.4H6.79981H4.3998ZM18.7998 30H21.1998V32.4H18.7998H6.79981V30H18.7998ZM14.7998 36.4H4.3998V34H6.79981H18.7998V36.4H14.7998ZM37.1998 35.6C37.1998 36.04 36.8398 36.4 36.3998 36.4H20.3998V34H21.1998C22.0798 34 22.7998 33.28 22.7998 32.4V30C22.7998 29.12 22.0798 28.4 21.1998 28.4H20.3998V26C20.3998 25.12 19.6798 24.4 18.7998 24.4H16.6398C18.9198 22.8 20.3998 20.16 20.3998 17.2C20.3998 13.16 17.6798 9.8 13.9998 8.72V4.4C13.9998 3.96 14.3598 3.6 14.7998 3.6H29.1998V9.2C29.1998 10.52 30.2798 11.6 31.5998 11.6H37.1998V35.6Z" fill="#31236F"/>
<path d="M18.7994 34H6.79941H4.39941V36.4H14.7994H18.7994V34Z" fill="#FFCD7D"/>
<path d="M18.7998 32.4H21.1998V30H18.7998H6.7998V32.4H18.7998Z" fill="#FFCD7D"/>
<path d="M18.7994 28.4V26H11.5994H4.39941V28.4H6.79941H18.7994Z" fill="#FFCD7D"/>
<path d="M18.7994 17.2C18.7994 13.24 15.5594 10 11.5994 10C7.63941 10 4.39941 13.24 4.39941 17.2C4.39941 21.16 7.63941 24.4 11.5994 24.4C15.5594 24.4 18.7994 21.16 18.7994 17.2ZM10.7994 22V21.16C9.67941 20.96 8.79941 20 8.79941 18.8C8.79941 18.36 9.15941 18 9.59941 18C10.0394 18 10.3994 18.36 10.3994 18.8C10.3994 19.24 10.7594 19.6 11.1994 19.6H11.5994H11.9994C12.4394 19.6 12.7994 19.24 12.7994 18.8C12.7994 18.36 12.4394 18 11.9994 18H11.1994C9.87941 18 8.79941 16.92 8.79941 15.6C8.79941 14.4 9.67941 13.44 10.7994 13.24V12.4C10.7994 11.96 11.1594 11.6 11.5994 11.6C12.0394 11.6 12.3994 11.96 12.3994 12.4V13.24C13.5194 13.44 14.3994 14.4 14.3994 15.6C14.3994 16.04 14.0394 16.4 13.5994 16.4C13.1594 16.4 12.7994 16.04 12.7994 15.6C12.7994 15.16 12.4394 14.8 11.9994 14.8H11.5994H11.1994C10.7594 14.8 10.3994 15.16 10.3994 15.6C10.3994 16.04 10.7594 16.4 11.1994 16.4H11.9994C13.3194 16.4 14.3994 17.48 14.3994 18.8C14.3994 20 13.5194 20.96 12.3994 21.16V22C12.3994 22.44 12.0394 22.8 11.5994 22.8C11.1594 22.8 10.7994 22.44 10.7994 22Z" fill="#FFCD7D"/>
<path d="M12.3998 22V21.16C13.5198 20.96 14.3998 20 14.3998 18.8C14.3998 17.48 13.3198 16.4 11.9998 16.4H11.1998C10.7598 16.4 10.3998 16.04 10.3998 15.6C10.3998 15.16 10.7598 14.8 11.1998 14.8H11.5998H11.9998C12.4398 14.8 12.7998 15.16 12.7998 15.6C12.7998 16.04 13.1598 16.4 13.5998 16.4C14.0398 16.4 14.3998 16.04 14.3998 15.6C14.3998 14.4 13.5198 13.44 12.3998 13.24V12.4C12.3998 11.96 12.0398 11.6 11.5998 11.6C11.1598 11.6 10.7998 11.96 10.7998 12.4V13.24C9.6798 13.44 8.7998 14.4 8.7998 15.6C8.7998 16.92 9.8798 18 11.1998 18H11.9998C12.4398 18 12.7998 18.36 12.7998 18.8C12.7998 19.24 12.4398 19.6 11.9998 19.6H11.5998H11.1998C10.7598 19.6 10.3998 19.24 10.3998 18.8C10.3998 18.36 10.0398 18 9.5998 18C9.1598 18 8.7998 18.36 8.7998 18.8C8.7998 20 9.6798 20.96 10.7998 21.16V22C10.7998 22.44 11.1598 22.8 11.5998 22.8C12.0398 22.8 12.3998 22.44 12.3998 22Z" fill="#31236F"/>
<path d="M33.9998 24.4H23.5998C23.1598 24.4 22.7998 24.76 22.7998 25.2C22.7998 25.64 23.1598 26 23.5998 26H33.9998C34.4398 26 34.7998 25.64 34.7998 25.2C34.7998 24.76 34.4398 24.4 33.9998 24.4Z" fill="#31236F"/>
<path d="M34.0002 32.4H26.0002C25.5602 32.4 25.2002 32.76 25.2002 33.2C25.2002 33.64 25.5602 34 26.0002 34H34.0002C34.4402 34 34.8002 33.64 34.8002 33.2C34.8002 32.76 34.4402 32.4 34.0002 32.4Z" fill="#31236F"/>
<path d="M34.0002 28.4H26.0002C25.5602 28.4 25.2002 28.76 25.2002 29.2C25.2002 29.64 25.5602 30 26.0002 30H34.0002C34.4402 30 34.8002 29.64 34.8002 29.2C34.8002 28.76 34.4402 28.4 34.0002 28.4Z" fill="#31236F"/>
<path d="M30.8002 14.8C30.8002 15.24 31.1602 15.6 31.6002 15.6H32.2002L31.1602 16.72L29.9602 18.04L29.5602 17.64L28.1202 16.2C28.0002 16.08 27.8002 16 27.6002 16C27.4002 16 27.1602 16.08 27.0402 16.28L23.0402 20.68C22.7602 21 22.7602 21.52 23.0802 21.8C23.2002 21.92 23.4002 22 23.6002 22C23.8002 22 24.0402 21.92 24.2002 21.72L25.9602 19.8L27.6402 17.92L28.2002 18.48L29.4802 19.76C29.6002 19.92 29.8002 20 30.0002 20C30.2002 20 30.4402 19.92 30.5602 19.72L33.1602 16.84V17.2C33.1602 17.64 33.5202 18 33.9602 18C34.4002 18 34.7602 17.64 34.7602 17.2V14.8C34.7602 14.36 34.4002 14 33.9602 14H31.5602C31.1602 14 30.8002 14.36 30.8002 14.8Z" fill="#31236F"/>
</svg>
