<svg width="30" height="30" viewBox="0 0 30 30" fill="none" xmlns="http://www.w3.org/2000/svg">
  <path d="M26.454 12.879L21.789 17.547C20.502 18.834 18.813 19.476 17.121 19.476C15.432 19.476 13.74 18.834 12.453 17.547C12.219 17.313 12.219 16.932 12.453 16.698C12.687 16.464 13.068 16.464 13.302 16.698C15.408 18.804 18.834 18.804 20.94 16.698L25.608 12.03C27.714 9.92399 27.714 6.49799 25.608 4.39199C23.502 2.28599 20.076 2.28599 17.97 4.39199L13.302 9.05999C13.068 9.29399 12.687 9.29399 12.453 9.05999C12.219 8.82599 12.219 8.44499 12.453 8.21099L17.121 3.54299C19.695 0.968988 23.883 0.968988 26.454 3.54299C29.028 6.11699 29.028 10.305 26.454 12.879ZM16.698 20.94L12.03 25.608C9.92401 27.714 6.49801 27.714 4.39201 25.608C2.28601 23.502 2.28601 20.076 4.39201 17.97L9.06001 13.302C11.166 11.196 14.592 11.196 16.698 13.302C16.932 13.536 17.313 13.536 17.547 13.302C17.781 13.068 17.781 12.687 17.547 12.453C14.973 9.87899 10.785 9.87899 8.21401 12.453L3.54601 17.121C0.972009 19.695 0.972009 23.883 3.54601 26.454C4.83301 27.741 6.52201 28.383 8.21401 28.383C9.90601 28.383 11.595 27.741 12.882 26.454L17.55 21.786C17.784 21.552 17.784 21.171 17.55 20.937C17.316 20.703 16.932 20.706 16.698 20.94Z" fill="#828282"/>
</svg>
